HIERARCHY
ROOT RootJoint
{
    OFFSET   0.000000   0.000000   0.000000
    CHANNELS 6 Xposition Yposition Zposition Xrotation Yrotation Zrotation
    JOINT pelvis_lowerback
    {
        OFFSET   0.000000   0.093605   0.000000
        CHANNELS 3 Xrotation Yrotation Zrotation
        JOINT lowerback_torso
        {
            OFFSET   0.000000   0.100000   0.000000
            CHANNELS 3 Xrotation Yrotation Zrotation
            JOINT torso_head
            {
                OFFSET   0.000000   0.282350   0.000000
                CHANNELS 3 Xrotation Yrotation Zrotation
                End Site
                {
                    OFFSET   0.000000   0.192650   0.000000
                }
            }
            JOINT rTorso_Clavicle
            {
                OFFSET  -0.001000   0.157500   0.000000
                CHANNELS 3 Xrotation Yrotation Zrotation
                JOINT rShoulder
                {
                    OFFSET  -0.117647   0.000000   0.000000
                    CHANNELS 3 Xrotation Yrotation Zrotation
                    JOINT rElbow
                    {
                        OFFSET  -0.245000   0.000000   0.000000
                        CHANNELS 3 Xrotation Yrotation Zrotation
                        JOINT rWrist
                        {
                            OFFSET  -0.240000   0.000000   0.000000
                            CHANNELS 3 Xrotation Yrotation Zrotation
                            End Site
                            {
                                OFFSET  -0.116353  -0.002500   0.000000
                            }
                        }
                    }
                }
            }
            JOINT lTorso_Clavicle
            {
                OFFSET   0.001000   0.157500   0.000000
                CHANNELS 3 Xrotation Yrotation Zrotation
                JOINT lShoulder
                {
                    OFFSET   0.117647   0.000000   0.000000
                    CHANNELS 3 Xrotation Yrotation Zrotation
                    JOINT lElbow
                    {
                        OFFSET   0.245000   0.000000   0.000000
                        CHANNELS 3 Xrotation Yrotation Zrotation
                        JOINT lWrist
                        {
                            OFFSET   0.240000   0.000000   0.000000
                            CHANNELS 3 Xrotation Yrotation Zrotation
                            End Site
                            {
                                OFFSET   0.116353  -0.002500   0.000000
                            }
                        }
                    }
                }
            }
        }
    }
    JOINT rHip
    {
        OFFSET  -0.100000  -0.051395   0.000000
        CHANNELS 3 Xrotation Yrotation Zrotation
        JOINT rKnee
        {
            OFFSET   0.000000  -0.410000   0.000000
            CHANNELS 3 Xrotation Yrotation Zrotation
            JOINT rAnkle
            {
                OFFSET   0.000000  -0.390000   0.000000
                CHANNELS 3 Xrotation Yrotation Zrotation
                JOINT rToeJoint
                {
                    OFFSET   0.000000  -0.050000   0.130000
                    CHANNELS 3 Xrotation Yrotation Zrotation
                    End Site
                    {
                        OFFSET  -0.010000   0.002000   0.060000
                    }
                }
            }
        }
    }
    JOINT lHip
    {
        OFFSET   0.100000  -0.051395   0.000000
        CHANNELS 3 Xrotation Yrotation Zrotation
        JOINT lKnee
        {
            OFFSET   0.000000  -0.410000   0.000000
            CHANNELS 3 Xrotation Yrotation Zrotation
            JOINT lAnkle
            {
                OFFSET   0.000000  -0.390000   0.000000
                CHANNELS 3 Xrotation Yrotation Zrotation
                JOINT lToeJoint
                {
                    OFFSET   0.000000  -0.050000   0.130000
                    CHANNELS 3 Xrotation Yrotation Zrotation
                    End Site
                    {
                        OFFSET   0.010000   0.002000   0.060000
                    }
                }
            }
        }
    }
}
MOTION
Frames: 17
Frame Time:   0.008333
 -2.376719   0.925631   3.975860   0.000000   0.000000   0.000000   0.000000   0.000000   0.000000   0.000000   0.000000   0.000000   0.000000   0.000000   0.000000   0.000000   0.000000   0.000000   0.000000   0.000000   0.000000   0.000000   0.000000   0.000000   0.000000   0.000000   0.000000   0.000000   0.000000   0.000000   0.000000   0.000000   0.000000   0.000000   0.000000   0.000000   0.000000   0.000000   0.000000   0.000000   0.000000   0.000000   0.000000   0.000000   0.000000   0.000000   0.000000   0.000000   0.000000   0.000000   0.000000   0.000000   0.000000   0.000000   0.000000   0.000000   0.000000   0.000000   0.000000   0.000000   0.000000   0.000000   0.000000
 -2.376663   0.925796   3.975499   0.253513   0.167261   0.029260  -0.269141  -0.038999  -0.031868   0.084104  -0.108326  -0.000241  -0.173775  -0.004435  -0.051699   0.151910  -0.186347  -0.428210   0.276847   0.054192   2.532628   0.009429   0.513286  -0.002262   0.123122  -0.235305  -2.232205   0.155236   0.209417   0.200499   0.946058  -0.175054  -2.333593   0.013925  -0.743375   0.007676   0.276808   0.335762   2.260642  -0.425714  -0.127545  -0.162694   0.260244   0.000301   0.000089  -0.393947  -0.537092  -0.075329  -0.113812  -0.000205   0.000494  -0.546747  -0.167265   0.106178   0.729322  -0.000872   0.000006  -0.901513   0.128070   0.135187   0.276257  -0.000654   0.000309
 -2.376662   0.926156   3.975042   0.478879   0.340487   0.068042  -0.495301  -0.083322  -0.076055   0.182622  -0.232033  -0.022219  -0.341498  -0.007540  -0.099214   0.298051  -0.342558  -0.276910   0.545664   0.142684   5.520346   0.021136   1.011593  -0.004068   0.260349  -0.325844  -3.800150   0.310249   0.360143  -0.207782   1.846040  -0.427653  -5.072485   0.031543  -1.469729   0.013581   0.586680   0.451387   3.834704  -0.867371  -0.249539  -0.441799   0.505652   0.000748   0.000172  -0.765602  -1.045455  -0.152017  -0.248419  -0.000529   0.000932  -1.043931  -0.324561   0.326836   1.468956  -0.002399   0.000152  -1.747175   0.249195   0.264631   0.484500  -0.001234   0.000502
 -2.376744   0.926380   3.974549   0.685444   0.506890   0.112443  -0.691075  -0.137165  -0.137148   0.286725  -0.362593  -0.069304  -0.497722  -0.010008  -0.139959   0.434823  -0.463327   0.260718   0.801933   0.262400   8.786943   0.032419   1.483736  -0.005362   0.395737  -0.354073  -4.705703   0.456758   0.458302  -1.032671   2.669477  -0.735998  -7.957049   0.048367  -2.159472   0.017596   0.889497   0.463765   4.677126  -1.319105  -0.360338  -0.808755   0.722427   0.001199   0.000226  -1.114217  -1.520720  -0.227791  -0.380293  -0.000868   0.001229  -1.482572  -0.472776   0.647089   2.170579  -0.004187   0.000337  -2.536962   0.362309   0.388058   0.668621  -0.001776   0.000622
 -2.376876   0.926208   3.974057   0.878937   0.662718   0.157178  -0.863183  -0.198905  -0.208778   0.390858  -0.496588  -0.124029  -0.643174  -0.012255  -0.181431   0.562817  -0.556574   1.085844   1.032424   0.402154  12.077679   0.041753   1.929561  -0.006162   0.528594  -0.343355  -5.048968   0.594617   0.518043  -2.116787   3.418532  -1.088761 -10.876970   0.062466  -2.812039   0.020139   1.183000   0.410339   4.980597  -1.777403  -0.459844  -1.243122   0.911713   0.001592   0.000250  -1.441270  -1.964762  -0.302037  -0.507770  -0.001192   0.001415  -1.868211  -0.613559   1.049085   2.831454  -0.005964   0.000521  -3.274868   0.467794   0.505666   0.831471  -0.002228   0.000682
 -2.377033   0.925454   3.973591   1.061996   0.806133   0.201141  -1.016632  -0.266506  -0.286120   0.492035  -0.631967  -0.183063  -0.778261  -0.014345  -0.221839   0.682170  -0.631338   2.075045   1.238307   0.553750  15.309562   0.048643   2.348824  -0.006554   0.657715  -0.308928  -5.018294   0.723505   0.551117  -3.346233   4.096517  -1.473794 -13.757462   0.073107  -3.427899   0.021559   1.466645   0.310292   4.918730  -2.237645  -0.548229  -1.729874   1.076732   0.001899   0.000250  -1.748020  -2.379572  -0.374398  -0.629626  -0.001479   0.001516  -2.205608  -0.747828   1.514399   3.453899  -0.007575   0.000687  -3.964178   0.565978   0.617530   0.976549  -0.002574   0.000697
 -2.377203   0.923987   3.973170   1.235911   0.936177   0.244062  -1.155398  -0.338299  -0.366664   0.588545  -0.767282  -0.245143  -0.903466  -0.016292  -0.260308   0.793548  -0.695016   3.144355   1.421560   0.710154  18.432616   0.053084   2.741662  -0.006618   0.782002  -0.262521  -4.751203   0.843326   0.566803  -4.642109   4.707663  -1.879397 -16.550233   0.080241  -4.007719   0.022128   1.739545   0.178165   4.621768  -2.695466  -0.625801  -2.255892   1.220818   0.002114   0.000233  -2.035609  -2.767021  -0.444599  -0.744830  -0.001714   0.001551  -2.498951  -0.876069   2.027057   4.040630  -0.008940   0.000824  -4.607937   0.657225   0.723751   1.106826  -0.002816   0.000679
 -2.377553   0.923366   3.972568   1.380186   0.939693   0.055451  -1.086149  -0.284590  -0.257431   0.548852  -0.880983  -0.243470  -1.135181  -0.073175  -0.312596   0.937102  -0.736049   3.860444   1.696423   0.887730  21.437410   0.055283   3.139457  -0.007265   0.876656  -0.219348  -3.807270   0.976553   0.550721  -5.416583   5.038147  -2.429039 -19.503532   0.081211  -4.505612   0.021200   1.958636   0.032333   3.629932  -3.171225  -0.906024  -2.081914   1.703062   0.001694  -0.001010  -1.751329  -3.301586  -0.349184  -0.834369  -0.001335   0.001872  -2.708440  -0.854332   2.716844   4.490159  -0.009110   0.001012  -5.066886   0.795254   0.739293   1.211947  -0.002726   0.000714
 -2.377503   0.922986   3.971874   1.551528   0.981164  -0.050681  -1.005119  -0.258000  -0.198748   0.504993  -1.010045  -0.264822  -1.361182  -0.127045  -0.363521   1.066802  -0.756277   4.391061   1.940964   1.077077  24.162964   0.054872   3.515699  -0.007646   0.972702  -0.152803  -2.870255   1.088476   0.491071  -6.008793   5.310585  -2.986276 -22.190324   0.079401  -4.983087   0.020307   2.164663  -0.166673   2.604278  -3.603682  -1.098943  -2.001589   2.078219   0.001384  -0.001326  -1.634721  -3.714199  -0.412493  -0.866843  -0.001099   0.001656  -2.943147  -0.836277   3.201856   4.894301  -0.008615   0.001218  -5.495009   0.923834   0.754735   1.314008  -0.002531   0.000757
 -2.377156   0.922710   3.971114   1.742229   1.021942  -0.119659  -0.914205  -0.242164  -0.156458   0.466228  -1.142284  -0.296720  -1.572653  -0.176787  -0.411888   1.180803  -0.761289   4.780110   2.156026   1.272515  26.633811   0.052769   3.871050  -0.007794   1.065782  -0.068313  -2.081808   1.182451   0.408042  -6.464039   5.534583  -3.533103 -24.630039   0.075686  -5.436353   0.019422   2.362811  -0.400676   1.717609  -4.019243  -1.263866  -1.977377   2.383487   0.001177  -0.001411  -1.573019  -4.090143  -0.487781  -0.906494  -0.000924   0.001497  -3.181558  -0.818934   3.562733   5.260962  -0.007817   0.001315  -5.896072   1.042511   0.769175   1.400216  -0.002256   0.000751
 -2.376586   0.922481   3.970315   1.946584   1.043680  -0.174880  -0.814875  -0.231110  -0.119425   0.435102  -1.270959  -0.329406  -1.768778  -0.222809  -0.456926   1.280831  -0.756490   5.059861   2.345061   1.468458  28.880873   0.049630   4.205670  -0.007743   1.155120   0.027066  -1.439934   1.262067   0.314782  -6.809720   5.718386  -4.059372 -26.850794   0.070789  -5.863639   0.018525   2.552005  -0.649421   0.977086  -4.425648  -1.412310  -1.980811   2.639317   0.001031  -0.001427  -1.541283  -4.438274  -0.564178  -0.945997  -0.000787   0.001361  -3.410525  -0.802573   3.844779   5.597592  -0.006913   0.001284  -6.271220   1.152336   0.782935   1.475359  -0.001962   0.000708
 -2.375838   0.922275   3.969502   2.161406   1.040032  -0.226730  -0.709546  -0.223093  -0.084245   0.411775  -1.393879  -0.358992  -1.950196  -0.265509  -0.498681   1.369298  -0.746814   5.255750   2.511843   1.660225  30.931345   0.045913   4.519652  -0.007524   1.240364   0.126377  -0.919645   1.330538   0.219283  -7.067464   5.869224  -4.559373 -28.877319   0.065256  -6.264443   0.017607   2.731907  -0.899009   0.362302  -4.825205  -1.547779  -1.997948   2.855926   0.000921  -0.001417  -1.528607  -4.761887  -0.638760  -0.983679  -0.000678   0.001241  -3.623900  -0.787319   4.071645   5.909586  -0.006005   0.001151  -6.621777   1.254125   0.796152   1.542394  -0.001679   0.000639
 -2.374937   0.922078   3.968690   2.384525   1.009608  -0.280032  -0.600305  -0.217651  -0.049895   0.395773  -1.510701  -0.384246  -2.117945  -0.305205  -0.537460   1.448589  -0.736002   5.387321   2.659923   1.844446  32.808068   0.041938   4.813290  -0.007174   1.321431   0.223856  -0.496793   1.390450   0.126204  -7.254758   5.993162  -5.030345 -30.730936   0.059484  -6.639122   0.016671   2.902789  -1.140911  -0.148342  -5.218561  -1.672072  -2.021639   3.039582   0.000832  -0.001391  -1.529067  -5.063220  -0.710298  -1.019076  -0.000589   0.001133  -3.818988  -0.773021   4.256877   6.200608  -0.005140   0.000949  -6.949168   1.348563   0.808871   1.602969  -0.001418   0.000558
 -2.373949   0.921829   3.968061   2.417130   0.962223  -0.384562  -0.331941  -0.200942  -0.029207   0.432691  -1.559724  -0.312183  -2.225300  -0.292870  -0.542791   1.440336  -0.819370   5.317470   2.805888   1.982349  34.317029   0.039919   5.304995  -0.007227   1.370049   0.243076   0.314836   1.375020  -0.004628  -7.157390   5.952221  -5.493612 -32.405661   0.054327  -7.091629   0.015712   2.992431  -1.282871  -1.023276  -5.426885  -1.776334  -1.990775   3.301791   0.000805  -0.001463  -1.688885  -5.308307  -0.773842  -0.960603  -0.000403   0.000706  -3.746303  -0.669033   4.484426   6.391684  -0.004297   0.000888  -7.104870   1.323600   0.896796   1.620189  -0.001166   0.000451
 -2.372820   0.921557   3.967526   2.437360   0.935191  -0.495118  -0.085625  -0.198277  -0.011043   0.474190  -1.616554  -0.229707  -2.312773  -0.277052  -0.541170   1.425386  -0.899455   5.096456   2.935872   2.112336  35.609344   0.036473   5.770590  -0.006974   1.415027   0.313764   0.958132   1.339292  -0.150062  -6.909813   5.891332  -5.934410 -33.858943   0.048461  -7.523796   0.014677   3.071703  -1.463852  -1.745515  -5.615285  -1.875468  -1.962827   3.569366   0.000804  -0.001467  -1.849919  -5.536827  -0.834019  -0.914109  -0.000267   0.000423  -3.648869  -0.567591   4.691235   6.578165  -0.003573   0.000856  -7.248044   1.299630   0.978823   1.649031  -0.000978   0.000374
 -2.371553   0.921283   3.967083   2.460562   0.918352  -0.603811   0.134815  -0.205978   0.004489   0.504297  -1.680484  -0.149413  -2.393238  -0.261917  -0.538504   1.407278  -0.974051   4.779879   3.053873   2.232439  36.733025   0.032390   6.205253  -0.006499   1.457909   0.388310   1.417436   1.294416  -0.298387  -6.565486   5.820917  -6.344799 -35.132126   0.042464  -7.929447   0.013586   3.147115  -1.649853  -2.279661  -5.792387  -1.967140  -1.945536   3.823576   0.000815  -0.001417  -2.008774  -5.749263  -0.892396  -0.870888  -0.000160   0.000219  -3.543310  -0.470465   4.871082   6.757116  -0.002951   0.000825  -7.381272   1.277041   1.055248   1.677123  -0.000819   0.000313
 -2.370153   0.921012   3.966726   2.489217   0.904119  -0.709623   0.330916  -0.220309   0.017369   0.522129  -1.747683  -0.073320  -2.469302  -0.247784  -0.535939   1.387518  -1.044167   4.404396   3.161845   2.342786  37.721499   0.028194   6.610257  -0.005900   1.498831   0.455415   1.733769   1.245216  -0.444130  -6.160793   5.745510  -6.724584 -36.258909   0.036731  -8.308523   0.012481   3.219331  -1.827006  -2.663007  -5.959755  -2.051581  -1.939205   4.059507   0.000828  -0.001340  -2.165544  -5.946618  -0.949241  -0.830919  -0.000077   0.000074  -3.433136  -0.377783   5.026199   6.927728  -0.002417   0.000783  -7.505422   1.255701   1.126434   1.703301  -0.000683   0.000262
